<svg xmlns="http://www.w3.org/2000/svg" xmlns:xlink="http://www.w3.org/1999/xlink" width="250" zoomAndPan="magnify" viewBox="0 0 187.5 74.999997" height="100" preserveAspectRatio="xMidYMid meet" version="1.0"><defs><filter x="0%" y="0%" width="100%" height="100%" id="e365de30d2"><feColorMatrix values="0 0 0 0 1 0 0 0 0 1 0 0 0 0 1 0 0 0 1 0" color-interpolation-filters="sRGB"/></filter><g/><mask id="c5e2d4d85a"><g filter="url(#e365de30d2)"><rect x="-18.75" width="225" fill="#000000" y="-7.5" height="89.999996" fill-opacity="0.85"/></g></mask><clipPath id="2a11f06489"><path d="M 0.886719 0.910156 L 29.214844 0.910156 L 29.214844 39.238281 L 0.886719 39.238281 Z M 0.886719 0.910156 " clip-rule="nonzero"/></clipPath><clipPath id="fbf458049e"><path d="M 0.765625 3.890625 L 0.765625 19.683594 C 0.761719 20.324219 0.839844 20.953125 1 21.574219 C 1.15625 22.195312 1.390625 22.789062 1.699219 23.347656 C 2.007812 23.910156 2.382812 24.421875 2.824219 24.890625 C 3.261719 25.355469 3.753906 25.757812 4.296875 26.097656 L 24.816406 38.765625 C 26.746094 39.957031 29.203125 38.527344 29.203125 36.210938 L 29.203125 20.316406 C 29.207031 19.691406 29.132812 19.074219 28.976562 18.46875 C 28.824219 17.863281 28.59375 17.289062 28.292969 16.742188 C 27.992188 16.191406 27.625 15.691406 27.199219 15.238281 C 26.769531 14.785156 26.289062 14.390625 25.757812 14.058594 L 5.148438 1.339844 C 3.222656 0.148438 0.765625 1.578125 0.765625 3.890625 Z M 0.765625 3.890625 " clip-rule="nonzero"/></clipPath><clipPath id="d94c3d5681"><rect x="0" width="30" y="0" height="40"/></clipPath><mask id="c1e7b2feb5"><g filter="url(#e365de30d2)"><rect x="-18.75" width="225" fill="#000000" y="-7.5" height="89.999996" fill-opacity="0.85"/></g></mask><clipPath id="723a650bbd"><path d="M 0.480469 0.652344 L 28.808594 0.652344 L 28.808594 38.980469 L 0.480469 38.980469 Z M 0.480469 0.652344 " clip-rule="nonzero"/></clipPath><clipPath id="40577eaf48"><path d="M 28.929688 36 L 28.929688 20.207031 C 28.933594 19.566406 28.855469 18.9375 28.695312 18.316406 C 28.539062 17.695312 28.304688 17.101562 27.996094 16.542969 C 27.6875 15.980469 27.3125 15.46875 26.871094 15 C 26.433594 14.535156 25.941406 14.132812 25.398438 13.792969 L 4.878906 1.125 C 2.949219 -0.0664062 0.492188 1.363281 0.492188 3.675781 L 0.492188 19.574219 C 0.488281 20.199219 0.566406 20.816406 0.71875 21.421875 C 0.871094 22.027344 1.101562 22.601562 1.402344 23.148438 C 1.703125 23.695312 2.070312 24.199219 2.496094 24.652344 C 2.925781 25.105469 3.40625 25.5 3.9375 25.832031 L 24.546875 38.550781 C 26.472656 39.742188 28.929688 38.3125 28.929688 36 Z M 28.929688 36 " clip-rule="nonzero"/></clipPath><clipPath id="fde4177542"><rect x="0" width="30" y="0" height="40"/></clipPath><mask id="45ad79c2f6"><g filter="url(#e365de30d2)"><rect x="-18.75" width="225" fill="#000000" y="-7.5" height="89.999996" fill-opacity="0.85"/></g></mask><clipPath id="c97f47652e"><path d="M 0.886719 0.304688 L 29.214844 0.304688 L 29.214844 38.585938 L 0.886719 38.585938 Z M 0.886719 0.304688 " clip-rule="nonzero"/></clipPath><clipPath id="7303daede2"><path d="M 0.765625 35.605469 L 0.765625 19.8125 C 0.761719 19.171875 0.839844 18.542969 1 17.921875 C 1.15625 17.300781 1.390625 16.710938 1.699219 16.148438 C 2.007812 15.585938 2.382812 15.074219 2.824219 14.609375 C 3.261719 14.140625 3.753906 13.738281 4.296875 13.398438 L 24.816406 0.730469 C 26.746094 -0.460938 29.203125 0.96875 29.203125 3.285156 L 29.203125 19.179688 C 29.207031 19.804688 29.132812 20.421875 28.976562 21.027344 C 28.824219 21.632812 28.59375 22.207031 28.292969 22.757812 C 27.992188 23.304688 27.625 23.804688 27.199219 24.257812 C 26.769531 24.710938 26.289062 25.105469 25.757812 25.4375 L 5.148438 38.15625 C 3.222656 39.347656 0.765625 37.917969 0.765625 35.605469 Z M 0.765625 35.605469 " clip-rule="nonzero"/></clipPath><clipPath id="3b2c301aca"><rect x="0" width="30" y="0" height="39"/></clipPath><mask id="8edc331523"><g filter="url(#e365de30d2)"><rect x="-18.75" width="225" fill="#000000" y="-7.5" height="89.999996" fill-opacity="0.85"/></g></mask><clipPath id="88713861b6"><path d="M 0.480469 0.304688 L 28.808594 0.304688 L 28.808594 38.585938 L 0.480469 38.585938 Z M 0.480469 0.304688 " clip-rule="nonzero"/></clipPath><clipPath id="8ab4f36bc9"><path d="M 28.929688 3.285156 L 28.929688 19.078125 C 28.933594 19.71875 28.855469 20.347656 28.695312 20.96875 C 28.539062 21.589844 28.304688 22.179688 27.996094 22.742188 C 27.6875 23.304688 27.3125 23.816406 26.871094 24.28125 C 26.433594 24.75 25.941406 25.152344 25.398438 25.492188 L 4.878906 38.15625 C 2.949219 39.351562 0.492188 37.921875 0.492188 35.605469 L 0.492188 19.710938 C 0.488281 19.085938 0.566406 18.46875 0.71875 17.863281 C 0.871094 17.257812 1.101562 16.683594 1.402344 16.132812 C 1.703125 15.585938 2.070312 15.085938 2.496094 14.632812 C 2.925781 14.179688 3.40625 13.785156 3.9375 13.453125 L 24.546875 0.734375 C 26.472656 -0.457031 28.929688 0.972656 28.929688 3.285156 Z M 28.929688 3.285156 " clip-rule="nonzero"/></clipPath><clipPath id="69ce654b99"><rect x="0" width="30" y="0" height="39"/></clipPath></defs><g mask="url(#c5e2d4d85a)"><g transform="matrix(1, 0, 0, 1, 40, 1)"><g clip-path="url(#d94c3d5681)"><g clip-path="url(#2a11f06489)"><g clip-path="url(#fbf458049e)"><path fill="#ffffff" d="M 29.207031 0.910156 L 0.886719 0.910156 L 0.886719 39.238281 L 29.207031 39.238281 Z M 29.207031 0.910156 " fill-opacity="1" fill-rule="nonzero"/></g></g></g></g></g><g mask="url(#c1e7b2feb5)"><g transform="matrix(1, 0, 0, 1, 7, 32)"><g clip-path="url(#fde4177542)"><g clip-path="url(#723a650bbd)"><g clip-path="url(#40577eaf48)"><path fill="#ffffff" d="M 0.488281 38.980469 L 28.808594 38.980469 L 28.808594 0.652344 L 0.488281 0.652344 Z M 0.488281 38.980469 " fill-opacity="1" fill-rule="nonzero"/></g></g></g></g></g><g mask="url(#45ad79c2f6)"><g transform="matrix(1, 0, 0, 1, 40, 17)"><g clip-path="url(#3b2c301aca)"><g clip-path="url(#c97f47652e)"><g clip-path="url(#7303daede2)"><path fill="#ffffff" d="M 29.207031 38.585938 L 0.886719 38.585938 L 0.886719 0.304688 L 29.207031 0.304688 Z M 29.207031 38.585938 " fill-opacity="1" fill-rule="nonzero"/></g></g></g></g></g><g mask="url(#8edc331523)"><g transform="matrix(1, 0, 0, 1, 7, 17)"><g clip-path="url(#69ce654b99)"><g clip-path="url(#88713861b6)"><g clip-path="url(#8ab4f36bc9)"><path fill="#ffffff" d="M 0.488281 0.304688 L 28.808594 0.304688 L 28.808594 38.585938 L 0.488281 38.585938 Z M 0.488281 0.304688 " fill-opacity="1" fill-rule="nonzero"/></g></g></g></g></g><g fill="#ffffff" fill-opacity="1"><g transform="translate(74.087032, 40.540543)"><g><path d="M 11.253906 0.417969 C 16.867188 0.417969 20.554688 -3.882812 20.554688 -9.941406 C 20.554688 -15.972656 16.867188 -20.246094 11.253906 -20.246094 C 5.667969 -20.246094 1.984375 -15.972656 1.984375 -9.941406 C 1.984375 -3.910156 5.667969 0.417969 11.253906 0.417969 Z M 11.253906 -1.117188 C 6.730469 -1.117188 3.714844 -4.664062 3.714844 -9.941406 C 3.714844 -15.21875 6.730469 -18.710938 11.253906 -18.710938 C 15.804688 -18.710938 18.820312 -15.21875 18.820312 -9.941406 C 18.820312 -4.636719 15.863281 -1.117188 11.253906 -1.117188 Z M 11.253906 -1.117188 "/></g></g></g><g fill="#ffffff" fill-opacity="1"><g transform="translate(97.094287, 40.540543)"><g><path d="M 4.328125 -19.882812 L 2.652344 -19.882812 L 2.652344 0 L 15.441406 0 L 15.441406 -1.480469 L 4.328125 -1.480469 Z M 4.328125 -19.882812 "/></g></g></g><g fill="#ffffff" fill-opacity="1"><g transform="translate(114.377666, 40.540543)"><g><path d="M 4.328125 0 L 4.328125 -19.882812 L 2.652344 -19.882812 L 2.652344 0 Z M 4.328125 0 "/></g></g></g><g fill="#ffffff" fill-opacity="1"><g transform="translate(121.83273, 40.540543)"><g><path d="M 10.5 -4.664062 L 9.464844 -1.730469 L 8.460938 -4.664062 L 2.820312 -19.882812 L 0.949219 -19.882812 L 8.488281 0.0546875 L 10.386719 0.0546875 L 17.898438 -19.882812 L 16.113281 -19.882812 Z M 10.5 -4.664062 "/></g></g></g><g fill="#ffffff" fill-opacity="1"><g transform="translate(141.154371, 40.540543)"><g><path d="M 4.328125 -9.578125 L 15.414062 -9.578125 L 15.414062 -11.058594 L 4.328125 -11.058594 L 4.328125 -18.402344 L 16.28125 -18.402344 L 16.28125 -19.882812 L 2.652344 -19.882812 L 2.652344 0 L 16.644531 0 L 16.644531 -1.480469 L 4.328125 -1.480469 Z M 4.328125 -9.578125 "/></g></g></g><g fill="#ffffff" fill-opacity="1"><g transform="translate(160.196807, 40.540543)"><g><path d="M 16.976562 -5.921875 C 16.726562 -8.015625 15.695312 -9.328125 13.542969 -9.660156 C 15.945312 -10.164062 17.507812 -11.953125 17.507812 -14.660156 C 17.507812 -17.871094 15.246094 -19.882812 11.617188 -19.882812 L 2.652344 -19.882812 L 2.652344 0 L 4.328125 0 L 4.328125 -8.9375 L 10.972656 -8.9375 C 14.214844 -8.9375 15.078125 -7.625 15.359375 -5.277344 L 15.945312 0 L 17.648438 0 Z M 4.328125 -10.445312 L 4.328125 -18.402344 L 11.335938 -18.402344 C 14.1875 -18.402344 15.777344 -16.976562 15.777344 -14.519531 C 15.777344 -11.925781 13.960938 -10.445312 10.917969 -10.445312 Z M 4.328125 -10.445312 "/></g></g></g><g fill="#ffffff" fill-opacity="1"><g transform="translate(180.704621, 40.540543)"><g/></g></g><g fill="#ffffff" fill-opacity="1"><g transform="translate(62.301093, 71.236379)"><g><path d="M 1.199219 -19.875 L 1.199219 -18.394531 L 8.125 -18.394531 L 8.125 0 L 9.828125 0 L 9.828125 -18.394531 L 16.777344 -18.394531 L 16.777344 -19.875 Z M 1.199219 -19.875 "/></g></g></g><g fill="#ffffff" fill-opacity="1"><g transform="translate(80.74719, 71.236379)"><g><path d="M 19.039062 0 L 10.941406 -19.875 L 9.074219 -19.875 L 0.949219 0 L 2.761719 0 L 5.25 -6.226562 L 14.710938 -6.226562 L 17.167969 0 Z M 9.574219 -17.027344 L 10.023438 -18.425781 L 10.46875 -17.027344 L 14.125 -7.703125 L 5.835938 -7.703125 Z M 9.574219 -17.027344 "/></g></g></g><g fill="#ffffff" fill-opacity="1"><g transform="translate(101.202528, 71.236379)"><g><path d="M 18.367188 -19.875 L 16.078125 -19.875 L 7.648438 -11.917969 L 4.328125 -8.738281 L 4.328125 -19.875 L 2.652344 -19.875 L 2.652344 0 L 4.328125 0 L 4.328125 -6.644531 L 8.570312 -10.691406 L 16.695312 0 L 18.816406 0 L 9.769531 -11.78125 Z M 18.367188 -19.875 "/></g></g></g><g fill="#ffffff" fill-opacity="1"><g transform="translate(121.434616, 71.236379)"><g><path d="M 4.328125 -9.574219 L 15.410156 -9.574219 L 15.410156 -11.054688 L 4.328125 -11.054688 L 4.328125 -18.394531 L 16.273438 -18.394531 L 16.273438 -19.875 L 2.652344 -19.875 L 2.652344 0 L 16.636719 0 L 16.636719 -1.480469 L 4.328125 -1.480469 Z M 4.328125 -9.574219 "/></g></g></g><g fill="#ffffff" fill-opacity="1"><g transform="translate(140.466744, 71.236379)"><g><path d="M 16.359375 -4.523438 C 16.359375 -3.683594 16.359375 -2.988281 16.386719 -2.34375 L 15.214844 -4.214844 L 4.464844 -19.875 L 2.652344 -19.875 L 2.652344 0 L 4.242188 0 L 4.242188 -15.351562 C 4.242188 -16.164062 4.242188 -16.859375 4.214844 -17.503906 L 5.414062 -15.632812 L 16.078125 0 L 17.976562 0 L 17.976562 -19.875 L 16.359375 -19.875 Z M 16.359375 -4.523438 "/></g></g></g><g fill="#ffffff" fill-opacity="1"><g transform="translate(161.563928, 71.236379)"><g><path d="M 9.519531 0.390625 C 14.683594 0.390625 17.027344 -2.066406 17.027344 -5.304688 C 17.027344 -8.261719 15.15625 -9.9375 11.640625 -10.664062 L 7.871094 -11.445312 C 5.136719 -12.003906 3.90625 -13.121094 3.90625 -14.992188 C 3.90625 -17.390625 5.835938 -18.84375 9.15625 -18.84375 C 12.507812 -18.84375 14.601562 -17.308594 14.824219 -14.488281 L 16.441406 -14.488281 C 16.191406 -18.171875 13.457031 -20.238281 9.210938 -20.238281 C 4.773438 -20.238281 2.289062 -18.089844 2.289062 -14.851562 C 2.289062 -11.949219 4.410156 -10.523438 7.648438 -9.855469 L 11 -9.183594 C 14.097656 -8.570312 15.382812 -7.371094 15.382812 -5.21875 C 15.382812 -2.625 13.398438 -1.03125 9.574219 -1.03125 C 5.777344 -1.03125 3.546875 -2.625 3.210938 -6.140625 L 1.589844 -6.140625 C 1.980469 -1.757812 4.71875 0.390625 9.519531 0.390625 Z M 9.519531 0.390625 "/></g></g></g></svg>