<svg xmlns="http://www.w3.org/2000/svg" xmlns:xlink="http://www.w3.org/1999/xlink" width="300" zoomAndPan="magnify" viewBox="0 0 224.87999 74.999997" height="100" preserveAspectRatio="xMidYMid meet" version="1.0"><defs><filter x="0%" y="0%" width="100%" height="100%" id="d6e9acd583"><feColorMatrix values="0 0 0 0 1 0 0 0 0 1 0 0 0 0 1 0 0 0 1 0" color-interpolation-filters="sRGB"/></filter><g/><mask id="f1f1c56786"><g filter="url(#d6e9acd583)"><rect x="-22.487999" width="269.855988" fill="#000000" y="-7.5" height="89.999996" fill-opacity="0.85"/></g></mask><clipPath id="bd8eb2b29b"><path d="M 0.972656 0.78125 L 22.578125 0.78125 L 22.578125 30 L 0.972656 30 Z M 0.972656 0.78125 " clip-rule="nonzero"/></clipPath><clipPath id="822c13ba5d"><path d="M 0.878906 3.054688 L 0.878906 15.097656 C 0.875 16.089844 1.113281 17.023438 1.59375 17.894531 C 2.070312 18.761719 2.730469 19.460938 3.574219 19.988281 L 19.21875 29.648438 C 20.691406 30.558594 22.566406 29.46875 22.566406 27.703125 L 22.566406 15.582031 C 22.570312 14.613281 22.339844 13.703125 21.875 12.855469 C 21.40625 12.003906 20.761719 11.324219 19.941406 10.808594 L 4.222656 1.109375 C 2.753906 0.199219 0.878906 1.289062 0.878906 3.054688 Z M 0.878906 3.054688 " clip-rule="nonzero"/></clipPath><clipPath id="9c66aefbac"><rect x="0" width="23" y="0" height="31"/></clipPath><mask id="1e8a68480e"><g filter="url(#d6e9acd583)"><rect x="-22.487999" width="269.855988" fill="#000000" y="-7.5" height="89.999996" fill-opacity="0.85"/></g></mask><clipPath id="adf54ca3a9"><path d="M 0.496094 0.226562 L 22.101562 0.226562 L 22.101562 29.457031 L 0.496094 29.457031 Z M 0.496094 0.226562 " clip-rule="nonzero"/></clipPath><clipPath id="ad3a6ff9f8"><path d="M 22.191406 27.183594 L 22.191406 15.140625 C 22.195312 14.144531 21.960938 13.214844 21.480469 12.34375 C 21 11.472656 20.339844 10.773438 19.5 10.246094 L 3.851562 0.585938 C 2.378906 -0.320312 0.503906 0.769531 0.503906 2.53125 L 0.503906 14.65625 C 0.5 15.625 0.730469 16.535156 1.199219 17.382812 C 1.667969 18.230469 2.3125 18.914062 3.132812 19.425781 L 18.851562 29.128906 C 20.316406 30.035156 22.191406 28.945312 22.191406 27.183594 Z M 22.191406 27.183594 " clip-rule="nonzero"/></clipPath><clipPath id="81474df9a2"><rect x="0" width="23" y="0" height="30"/></clipPath><mask id="700e180b4a"><g filter="url(#d6e9acd583)"><rect x="-22.487999" width="269.855988" fill="#000000" y="-7.5" height="89.999996" fill-opacity="0.85"/></g></mask><clipPath id="9e8d727ef6"><path d="M 0.972656 0.519531 L 22.578125 0.519531 L 22.578125 29.714844 L 0.972656 29.714844 Z M 0.972656 0.519531 " clip-rule="nonzero"/></clipPath><clipPath id="601eeacb4e"><path d="M 0.878906 27.441406 L 0.878906 15.398438 C 0.875 14.40625 1.113281 13.472656 1.59375 12.605469 C 2.070312 11.734375 2.730469 11.035156 3.574219 10.507812 L 19.21875 0.847656 C 20.691406 -0.0625 22.566406 1.027344 22.566406 2.792969 L 22.566406 14.917969 C 22.570312 15.886719 22.339844 16.792969 21.875 17.644531 C 21.40625 18.492188 20.761719 19.171875 19.941406 19.6875 L 4.222656 29.386719 C 2.753906 30.296875 0.878906 29.207031 0.878906 27.441406 Z M 0.878906 27.441406 " clip-rule="nonzero"/></clipPath><clipPath id="a5308c1d3b"><rect x="0" width="23" y="0" height="30"/></clipPath><mask id="af6537ce17"><g filter="url(#d6e9acd583)"><rect x="-22.487999" width="269.855988" fill="#000000" y="-7.5" height="89.999996" fill-opacity="0.85"/></g></mask><clipPath id="07b6781266"><path d="M 0.496094 0.519531 L 22.101562 0.519531 L 22.101562 29.714844 L 0.496094 29.714844 Z M 0.496094 0.519531 " clip-rule="nonzero"/></clipPath><clipPath id="f9c8ef960f"><path d="M 22.191406 2.792969 L 22.191406 14.835938 C 22.195312 15.832031 21.960938 16.761719 21.480469 17.632812 C 21 18.503906 20.339844 19.203125 19.5 19.730469 L 3.851562 29.390625 C 2.378906 30.296875 0.503906 29.207031 0.503906 27.445312 L 0.503906 15.320312 C 0.5 14.351562 0.730469 13.441406 1.199219 12.59375 C 1.667969 11.746094 2.3125 11.0625 3.132812 10.550781 L 18.851562 0.847656 C 20.316406 -0.0585938 22.191406 1.03125 22.191406 2.792969 Z M 22.191406 2.792969 " clip-rule="nonzero"/></clipPath><clipPath id="9ac609bbcb"><rect x="0" width="23" y="0" height="30"/></clipPath></defs><g mask="url(#f1f1c56786)"><g transform="matrix(1, 0, 0, 1, 32, 4)"><g clip-path="url(#9c66aefbac)"><g clip-path="url(#bd8eb2b29b)"><g clip-path="url(#822c13ba5d)"><path fill="#ffffff" d="M 22.570312 0.78125 L 0.972656 0.78125 L 0.972656 30.011719 L 22.570312 30.011719 Z M 22.570312 0.78125 " fill-opacity="1" fill-rule="nonzero"/></g></g></g></g></g><g mask="url(#1e8a68480e)"><g transform="matrix(1, 0, 0, 1, 7, 28)"><g clip-path="url(#81474df9a2)"><g clip-path="url(#adf54ca3a9)"><g clip-path="url(#ad3a6ff9f8)"><path fill="#ffffff" d="M 0.5 29.457031 L 22.101562 29.457031 L 22.101562 0.226562 L 0.5 0.226562 Z M 0.5 29.457031 " fill-opacity="1" fill-rule="nonzero"/></g></g></g></g></g><g mask="url(#700e180b4a)"><g transform="matrix(1, 0, 0, 1, 32, 16)"><g clip-path="url(#a5308c1d3b)"><g clip-path="url(#9e8d727ef6)"><g clip-path="url(#601eeacb4e)"><path fill="#ffffff" d="M 22.570312 29.714844 L 0.972656 29.714844 L 0.972656 0.519531 L 22.570312 0.519531 Z M 22.570312 29.714844 " fill-opacity="1" fill-rule="nonzero"/></g></g></g></g></g><g mask="url(#af6537ce17)"><g transform="matrix(1, 0, 0, 1, 7, 16)"><g clip-path="url(#9ac609bbcb)"><g clip-path="url(#07b6781266)"><g clip-path="url(#f9c8ef960f)"><path fill="#ffffff" d="M 0.5 0.519531 L 22.101562 0.519531 L 22.101562 29.714844 L 0.5 29.714844 Z M 0.5 0.519531 " fill-opacity="1" fill-rule="nonzero"/></g></g></g></g></g><g fill="#ffffff" fill-opacity="1"><g transform="translate(38.708817, 63.589695)"><g><path d="M 8.511719 0.363281 C 12.769531 0.363281 15.6875 -2.894531 15.6875 -7.578125 C 15.6875 -12.175781 12.769531 -15.429688 8.511719 -15.429688 C 4.277344 -15.429688 1.363281 -12.175781 1.363281 -7.578125 C 1.363281 -2.9375 4.277344 0.363281 8.511719 0.363281 Z M 8.535156 -1.40625 C 5.511719 -1.40625 3.382812 -3.808594 3.382812 -7.578125 C 3.382812 -11.300781 5.511719 -13.664062 8.535156 -13.664062 C 11.535156 -13.664062 13.664062 -11.300781 13.664062 -7.578125 C 13.664062 -3.765625 11.578125 -1.40625 8.535156 -1.40625 Z M 8.535156 -1.40625 "/></g></g></g><g fill="#ffffff" fill-opacity="1"><g transform="translate(56.105654, 63.589695)"><g><path d="M 3.789062 -15.152344 L 1.808594 -15.152344 L 1.808594 0 L 11.683594 0 L 11.683594 -1.722656 L 3.789062 -1.722656 Z M 3.789062 -15.152344 "/></g></g></g><g fill="#ffffff" fill-opacity="1"><g transform="translate(69.100253, 63.589695)"><g><path d="M 3.789062 0 L 3.789062 -15.152344 L 1.808594 -15.152344 L 1.808594 0 Z M 3.789062 0 "/></g></g></g><g fill="#ffffff" fill-opacity="1"><g transform="translate(75.055476, 63.589695)"><g><path d="M 8.023438 -4.382812 L 7.277344 -2.085938 L 6.535156 -4.382812 L 2.832031 -15.152344 L 0.636719 -15.152344 L 6.109375 0 L 8.386719 0 L 13.8125 -15.152344 L 11.707031 -15.152344 Z M 8.023438 -4.382812 "/></g></g></g><g fill="#ffffff" fill-opacity="1"><g transform="translate(89.857752, 63.589695)"><g><path d="M 3.789062 -6.9375 L 11.855469 -6.9375 L 11.855469 -8.664062 L 3.789062 -8.664062 L 3.789062 -13.429688 L 12.535156 -13.429688 L 12.535156 -15.152344 L 1.808594 -15.152344 L 1.808594 0 L 12.726562 0 L 12.726562 -1.722656 L 3.789062 -1.722656 Z M 3.789062 -6.9375 "/></g></g></g><g fill="#ffffff" fill-opacity="1"><g transform="translate(104.319764, 63.589695)"><g><path d="M 13.089844 -4.832031 C 12.941406 -6.234375 12.089844 -7.109375 10.769531 -7.363281 C 12.367188 -7.8125 13.472656 -9.195312 13.472656 -11.152344 C 13.472656 -13.578125 11.726562 -15.152344 8.832031 -15.152344 L 1.808594 -15.152344 L 1.808594 0 L 3.789062 0 L 3.789062 -6.535156 L 8.472656 -6.535156 C 10.238281 -6.535156 11.003906 -5.832031 11.195312 -4.042969 L 11.640625 0 L 13.644531 0 Z M 3.789062 -8.257812 L 3.789062 -13.429688 L 8.492188 -13.429688 C 10.40625 -13.429688 11.449219 -12.558594 11.449219 -10.960938 C 11.449219 -9.238281 10.214844 -8.257812 8.152344 -8.257812 Z M 3.789062 -8.257812 "/></g></g></g><g fill="#ffffff" fill-opacity="1"><g transform="translate(119.908924, 63.589695)"><g/></g></g><g fill="#ffffff" fill-opacity="1"><g transform="translate(126.013029, 63.589695)"><g><path d="M 0.746094 -15.152344 L 0.746094 -13.429688 L 5.808594 -13.429688 L 5.808594 0 L 7.789062 0 L 7.789062 -13.429688 L 12.855469 -13.429688 L 12.855469 -15.152344 Z M 0.746094 -15.152344 "/></g></g></g><g fill="#ffffff" fill-opacity="1"><g transform="translate(139.964618, 63.589695)"><g><path d="M 14.601562 0 L 8.746094 -15.152344 L 6.511719 -15.152344 L 0.636719 0 L 2.746094 0 L 4.382812 -4.449219 L 10.8125 -4.449219 L 12.410156 0 Z M 7.128906 -11.917969 L 7.640625 -13.492188 L 8.128906 -11.917969 L 10.195312 -6.171875 L 5.023438 -6.171875 Z M 7.128906 -11.917969 "/></g></g></g><g fill="#ffffff" fill-opacity="1"><g transform="translate(155.553778, 63.589695)"><g><path d="M 14.132812 -15.152344 L 11.492188 -15.152344 L 3.789062 -7.726562 L 3.789062 -15.152344 L 1.808594 -15.152344 L 1.808594 0 L 3.789062 0 L 3.789062 -5.300781 L 6.34375 -7.789062 L 8.28125 -5.152344 L 12.089844 0 L 14.558594 0 L 7.726562 -9.046875 Z M 14.132812 -15.152344 "/></g></g></g><g fill="#ffffff" fill-opacity="1"><g transform="translate(171.100385, 63.589695)"><g><path d="M 3.789062 -6.9375 L 11.855469 -6.9375 L 11.855469 -8.664062 L 3.789062 -8.664062 L 3.789062 -13.429688 L 12.535156 -13.429688 L 12.535156 -15.152344 L 1.808594 -15.152344 L 1.808594 0 L 12.726562 0 L 12.726562 -1.722656 L 3.789062 -1.722656 Z M 3.789062 -6.9375 "/></g></g></g><g fill="#ffffff" fill-opacity="1"><g transform="translate(185.562397, 63.589695)"><g><path d="M 11.984375 -4.894531 C 11.984375 -4.066406 11.984375 -3.363281 12.003906 -2.703125 C 11.621094 -3.339844 11.214844 -3.980469 10.8125 -4.617188 L 4 -15.152344 L 1.808594 -15.152344 L 1.808594 0 L 3.683594 0 L 3.683594 -10.257812 C 3.683594 -11.046875 3.683594 -11.75 3.660156 -12.386719 C 4.042969 -11.769531 4.425781 -11.132812 4.832031 -10.515625 L 11.597656 0 L 13.855469 0 L 13.855469 -15.152344 L 11.984375 -15.152344 Z M 11.984375 -4.894531 "/></g></g></g><g fill="#ffffff" fill-opacity="1"><g transform="translate(201.5769, 63.589695)"><g><path d="M 7.277344 0.320312 C 11.472656 0.320312 13.132812 -1.765625 13.132812 -4.171875 C 13.132812 -6.535156 11.597656 -7.875 8.789062 -8.472656 L 6.128906 -9.046875 C 4.234375 -9.449219 3.492188 -10.132812 3.492188 -11.324219 C 3.492188 -12.917969 4.765625 -13.835938 6.9375 -13.835938 C 9.257812 -13.835938 10.597656 -12.8125 10.769531 -10.898438 L 12.664062 -10.898438 C 12.410156 -13.8125 10.363281 -15.453125 7.003906 -15.453125 C 3.511719 -15.453125 1.617188 -13.707031 1.617188 -11.152344 C 1.617188 -8.746094 3.40625 -7.726562 5.875 -7.214844 L 8.003906 -6.769531 C 10.363281 -6.277344 11.214844 -5.492188 11.214844 -4.066406 C 11.214844 -2.363281 9.9375 -1.296875 7.34375 -1.296875 C 4.726562 -1.296875 3.191406 -2.382812 2.980469 -4.894531 L 1.085938 -4.894531 C 1.339844 -1.40625 3.492188 0.320312 7.277344 0.320312 Z M 7.277344 0.320312 "/></g></g></g></svg>